<?xml version="1.0" encoding="UTF-8" standalone="no"?>
<svg
   xmlns:svg="http://www.w3.org/2000/svg"
   xmlns="http://www.w3.org/2000/svg"
   width="800.0"
   height="240.0"

>
    <g transform="scale(5.119926009207976, -5.119926009207976)   translate(69.228064513102,-17.7663064513102)" stroke-width="0.35"  fill="none">
       <!-- hidden lines -->
       <g  stroke="rgb(160,160,160)" fill="none" stroke-dasharray="0.35,0.35" >

       </g>

       <!-- solid lines -->
       <g  stroke="rgb(0,0,0)" fill="none">
			<path d="M-27.165,-10.86 L27.165,-10.86 " />
			<path d="M-27.165,-13.86 L-27.165,-10.86 " />
			<path d="M27.165,-10.86 L27.165,-13.86 " />
			<path d="M27.165,-13.859999999999998 L27.168850478486842,-13.70805249348386 L27.180392029824315,-13.5564950340377 L27.199595027015665,-13.405716667486267 L27.226410176242517,-13.256104439734017 L27.260768643401388,-13.108042403223836 L27.302582230799853,-12.961910631079924 L27.35174360355876,-12.818084241465538 L27.40812656513931,-12.676932434660042 L27.471586381287775,-12.538817545327095 L27.541960151566254,-12.404094112406755 L27.619067227515746,-12.273107969019112 L27.70270967637817,-12.146195354715621 L27.792672789186902,-12.02368205235701 L27.888725631921627,-11.905882551833333 L27.99062163831264,-11.79309924277294 L28.09809924277294,-11.68562163831264 L28.210882551833333,-11.583725631921626 L28.32868205235701,-11.487672789186902 L28.451195354715622,-11.39770967637817 L28.57810796901911,-11.314067227515746 L28.709094112406756,-11.236960151566253 L28.843817545327095,-11.166586381287775 L28.981932434660045,-11.103126565139307 L29.123084241465538,-11.046743603558758 L29.266910631079927,-10.997582230799853 L29.413042403223837,-10.955768643401386 L29.56110443973402,-10.921410176242516 L29.71071666748627,-10.894595027015665 L29.861495034037702,-10.875392029824315 L30.013052493483862,-10.86385047848684 L30.165,-10.86 " />
			<path d="M30.165,-10.86 L82.745000000002,-3.5450000000143795 " />
			<path d="M82.74500000000022,-3.5449999999997805 L82.84717333810904,-3.6415963973467704 L82.95460214185754,-3.7323119259286432 L83.06694840048425,-3.816861161130965 L83.18385863109545,-3.8949780797795865 L83.30496499085301,-3.9664168971479623 L83.42988643434408,-4.030952840286835 L83.55822991249099,-4.088382855243091 L83.68959160922894,-4.138526245942616 L83.82355821206086,-4.181225242727004 L83.95970821249136,-4.216345498755265 L84.09761323224846,-4.243776512708688 L84.23683937112006,-4.263431976468879 L84.37694857216454,-4.275250046675028 L84.5175,-4.279193539306 L84.65805142783546,-4.275250046675028 L84.79816062887994,-4.26343197646888 L84.93738676775153,-4.243776512708688 L85.07529178750863,-4.216345498755265 L85.21144178793914,-4.181225242727005 L85.34540839077106,-4.138526245942616 L85.47677008750901,-4.088382855243091 L85.60511356565591,-4.030952840286835 L85.73003500914699,-3.9664168971479628 L85.85114136890455,-3.8949780797795865 L85.96805159951575,-3.816861161130965 L86.08039785814246,-3.7323119259286432 L86.18782666189095,-3.641596397346771 L86.28999999999978,-3.5449999999997805 L86.38659639734676,-3.44282666189095 L86.47731192592865,-3.335397858142466 L86.56186116113096,-3.223051599515748 L86.63997807977958,-3.1061413689045496 L86.71141689714796,-2.9850350091469933 L86.77595284028683,-2.8601135656559133 L86.83338285524309,-2.7317700875090156 L86.88352624594262,-2.600408390771064 L86.926225242727,-2.4664417879391425 L86.96134549875526,-2.3302917875086306 L86.98877651270868,-2.1923867677515307 L87.00843197646888,-2.0531606288799433 L87.02025004667503,-1.9130514278354667 L87.024193539306,-1.7725000000000002 L87.02025004667503,-1.6319485721645335 L87.00843197646888,-1.4918393711200573 L86.98877651270868,-1.352613232248469 L86.96134549875526,-1.21470821249137 L86.926225242727,-1.078558212060858 L86.88352624594262,-0.9445916092289367 L86.83338285524309,-0.8132299124909848 L86.77595284028683,-0.684886434344087 L86.71141689714796,-0.5599649908530071 L86.63997807977958,-0.4388586310954503 L86.56186116113096,-0.3219484004842521 L86.47731192592865,-0.20960214185753445 L86.38659639734676,-0.10217333810904972 L86.28999999999978,-2.19824158875781e-13 " />
			<path d="M86.28999999999978,2.1960211427085596e-13 L86.38659639734676,0.1021733381090495 L86.47731192592865,0.20960214185753423 L86.56186116113096,0.3219484004842519 L86.63997807977958,0.4388586310954503 L86.71141689714796,0.5599649908530069 L86.77595284028683,0.684886434344087 L86.83338285524309,0.8132299124909845 L86.88352624594262,0.9445916092289361 L86.926225242727,1.0785582120608574 L86.96134549875526,1.2147082124913697 L86.98877651270868,1.352613232248469 L87.00843197646887,1.4918393711200568 L87.02025004667503,1.6319485721645333 L87.024193539306,1.7724999999999997 L87.02025004667503,1.9130514278354667 L87.00843197646888,2.053160628879943 L86.98877651270868,2.1923867677515307 L86.96134549875526,2.33029178750863 L86.926225242727,2.466441787939142 L86.88352624594262,2.600408390771064 L86.83338285524309,2.731770087509015 L86.77595284028683,2.860113565655913 L86.71141689714796,2.9850350091469933 L86.63997807977958,3.1061413689045496 L86.56186116113096,3.223051599515748 L86.47731192592865,3.335397858142466 L86.38659639734676,3.44282666189095 L86.28999999999978,3.5449999999997805 L86.18782666189095,3.6415963973467704 L86.08039785814246,3.732311925928643 L85.96805159951575,3.816861161130965 L85.85114136890455,3.8949780797795865 L85.73003500914699,3.9664168971479623 L85.60511356565591,4.030952840286835 L85.47677008750901,4.08838285524309 L85.34540839077106,4.138526245942616 L85.21144178793914,4.181225242727004 L85.07529178750863,4.216345498755265 L84.93738676775153,4.243776512708688 L84.79816062887994,4.26343197646888 L84.65805142783546,4.275250046675028 L84.5175,4.279193539306 L84.37694857216454,4.275250046675028 L84.23683937112006,4.26343197646888 L84.09761323224846,4.243776512708688 L83.95970821249136,4.216345498755265 L83.82355821206086,4.181225242727005 L83.68959160922894,4.138526245942616 L83.55822991249099,4.088382855243091 L83.42988643434408,4.030952840286835 L83.30496499085301,3.9664168971479628 L83.18385863109545,3.8949780797795865 L83.06694840048425,3.8168611611309653 L82.95460214185754,3.7323119259286432 L82.84717333810904,3.641596397346771 L82.74500000000022,3.5449999999997805 " />
			<path d="M82.745,3.545 L30.164999999998003,10.85999999998562 " />
			<path d="M30.165,10.86 L30.013052493483862,10.86385047848684 L29.861495034037702,10.875392029824313 L29.71071666748627,10.894595027015665 L29.56110443973402,10.921410176242516 L29.413042403223837,10.955768643401386 L29.266910631079924,10.997582230799853 L29.123084241465538,11.046743603558758 L28.981932434660045,11.103126565139307 L28.843817545327095,11.166586381287775 L28.709094112406756,11.236960151566253 L28.57810796901911,11.314067227515746 L28.451195354715622,11.39770967637817 L28.32868205235701,11.487672789186904 L28.210882551833333,11.583725631921627 L28.09809924277294,11.68562163831264 L27.99062163831264,11.79309924277294 L27.888725631921627,11.905882551833333 L27.792672789186902,12.02368205235701 L27.70270967637817,12.146195354715623 L27.619067227515746,12.273107969019112 L27.541960151566254,12.404094112406757 L27.471586381287775,12.538817545327097 L27.408126565139305,12.676932434660044 L27.35174360355876,12.818084241465538 L27.302582230799853,12.961910631079926 L27.260768643401384,13.108042403223838 L27.226410176242517,13.256104439734019 L27.199595027015665,13.405716667486269 L27.180392029824315,13.556495034037702 L27.168850478486842,13.70805249348386 L27.165,13.86 " />
			<path d="M27.165,13.86 L27.165,10.86 " />
			<path d="M27.165,10.86 L-27.165,10.86 " />
			<path d="M-27.165,10.86 L-27.165,13.86 " />
			<path d="M-27.165,13.859999999999998 L-27.168850478486842,13.70805249348386 L-27.180392029824315,13.5564950340377 L-27.199595027015665,13.405716667486267 L-27.226410176242517,13.256104439734017 L-27.260768643401388,13.108042403223836 L-27.302582230799853,12.961910631079924 L-27.35174360355876,12.818084241465538 L-27.40812656513931,12.676932434660042 L-27.471586381287775,12.538817545327095 L-27.541960151566254,12.404094112406755 L-27.619067227515746,12.273107969019112 L-27.70270967637817,12.146195354715621 L-27.792672789186902,12.02368205235701 L-27.888725631921627,11.905882551833333 L-27.99062163831264,11.79309924277294 L-28.09809924277294,11.68562163831264 L-28.210882551833333,11.583725631921626 L-28.32868205235701,11.487672789186902 L-28.451195354715622,11.39770967637817 L-28.57810796901911,11.314067227515746 L-28.709094112406756,11.236960151566253 L-28.843817545327095,11.166586381287775 L-28.981932434660045,11.103126565139307 L-29.123084241465538,11.046743603558758 L-29.266910631079927,10.997582230799853 L-29.413042403223837,10.955768643401386 L-29.56110443973402,10.921410176242516 L-29.71071666748627,10.894595027015665 L-29.861495034037702,10.875392029824315 L-30.013052493483862,10.86385047848684 L-30.165,10.86 " />
			<path d="M-30.165,10.86 L-30.165,-10.86 " />
			<path d="M-30.165,-10.86 L-30.013052493483862,-10.86385047848684 L-29.861495034037702,-10.875392029824313 L-29.71071666748627,-10.894595027015665 L-29.56110443973402,-10.921410176242516 L-29.413042403223837,-10.955768643401386 L-29.266910631079924,-10.997582230799853 L-29.123084241465538,-11.046743603558758 L-28.981932434660045,-11.103126565139307 L-28.843817545327095,-11.166586381287775 L-28.709094112406756,-11.236960151566253 L-28.57810796901911,-11.314067227515746 L-28.451195354715622,-11.39770967637817 L-28.32868205235701,-11.487672789186904 L-28.210882551833333,-11.583725631921627 L-28.09809924277294,-11.68562163831264 L-27.99062163831264,-11.79309924277294 L-27.888725631921627,-11.905882551833333 L-27.792672789186902,-12.02368205235701 L-27.70270967637817,-12.146195354715623 L-27.619067227515746,-12.273107969019112 L-27.541960151566254,-12.404094112406757 L-27.471586381287775,-12.538817545327097 L-27.408126565139305,-12.676932434660044 L-27.35174360355876,-12.818084241465538 L-27.302582230799853,-12.961910631079926 L-27.260768643401384,-13.108042403223838 L-27.226410176242517,-13.256104439734019 L-27.199595027015665,-13.405716667486269 L-27.180392029824315,-13.556495034037702 L-27.168850478486842,-13.70805249348386 L-27.165,-13.86 " />
			<path d="M55.07,-2.77 L55.016365789809576,-2.768727987088113 L54.96283225611753,-2.764918038480851 L54.90950534788544,-2.758589101159072 L54.856484794419565,-2.749772174353744 L54.8038642291693,-2.7385090846382303 L54.751731313295345,-2.7248513363326636 L54.70016785900759,-2.708859037220425 L54.64924995267273,-2.690599899576711 L54.59904807769156,-2.670148316509205 L54.54962723714601,-2.647584513610833 L54.5010470762159,-2.6229937759246305 L54.45336167852322,-2.5964655569350823 L54.40660654081771,-2.5680843378976497 L54.360810535064196,-2.537933689950739 L54.272201606220364,-2.4726641670088774 L54.187696024717674,-2.4013213510362577 L54.10738275392344,-2.324532588038967 L54.03129540855614,-2.2428795802948214 L53.959418776260975,-2.1568861466662295 L53.89171073480491,-2.0670275856802247 L53.82811004604909,-1.9737323783310226 L53.768539790738714,-1.8773800094890363 L53.712919446502546,-1.7783150916458421 L53.66116183181299,-1.676840041484216 L53.613177676680024,-1.5732198580017451 L53.568883055124125,-1.467696489135926 L53.52819872895502,-1.360489700658249 L53.4910498194545,-1.251797735228395 L53.45736580696334,-1.1417977616085422 L53.42708085837216,-1.0306461140377827 L53.40013674285833,-0.9184887351045086 L53.37648378101022,-0.8054707964895991 L53.3560756730152,-0.6917164318099078 L53.33887302364743,-0.5773438972817335 L53.324842902622535,-0.4624662712654396 L53.313958483447365,-0.34719173756326205 L53.30619885566972,-0.2316238308869093 L53.30154901052788,-0.11586164449495084 L53.3,-7.771561172376096e-15 " />
			<path d="M53.3,3.608224830032e-16 L53.301549010527886,0.11586164449527231 L53.30619885566977,0.23162383088758004 L53.31395848344747,0.3471917375644136 L53.32484290262271,0.46246627126713447 L53.338873023647714,0.5773438972839278 L53.3560756730156,0.6917164318124939 L53.37648378101076,0.8054707964924761 L53.400136742859026,0.9184887351076259 L53.427080858373,1.030646114041103 L53.45736580696417,1.1417977616119985 L53.49104981945532,1.2517977352319563 L53.52819872895594,1.3604897006618297 L53.568883055125255,1.4676964891393987 L53.61317767668139,1.5732198580050243 L53.66116183181455,1.6768400414873343 L53.71291944650426,1.778315091648937 L53.76853979074056,1.877380009492164 L53.828110046051066,1.9737323783340588 L53.891710734807006,2.0670275856831566 L53.9594187762632,2.1568861466690374 L54.031295408558464,2.2428795802974615 L54.10738275392576,2.324532588041331 L54.18769602471975,2.401321351038111 L54.27220160622188,2.472664167010072 L54.36081053506502,2.537933689951331 L54.406606540818146,2.5680843378980054 L54.45336167852322,2.5964655569352773 L54.50104707621555,2.62299377592474 L54.54962723714558,2.6475845136108545 L54.59904807769118,2.6701483165091204 L54.64924995267245,2.69059989957652 L54.700167859007415,2.7088590372201513 L54.751731313295245,2.7248513363323545 L54.80386422916926,2.7385090846379403 L54.85648479441955,2.7497721743535197 L54.909505347885435,2.758589101158936 L54.96283225611753,2.7649180384807956 L55.016365789809576,2.7687279870881043 L55.06999999999999,2.77 " />
			<path d="M55.07,2.77 L55.123634210190424,2.768727987088104 L55.17716774388247,2.7649180384807956 L55.23049465211456,2.758589101158936 L55.28351520558043,2.7497721743535197 L55.336135770830694,2.7385090846379403 L55.38826868670465,2.7248513363323545 L55.439832140992394,2.7088590372201513 L55.49075004732723,2.69059989957652 L55.54095192230838,2.6701483165091204 L55.590372762853875,2.6475845136108545 L55.638952923783904,2.62299377592474 L55.68663832147644,2.5964655569352773 L55.73339345918171,2.568084337898006 L55.77918946493493,2.537933689951331 L55.867798393778116,2.4726641670100724 L55.95230397528025,2.401321351038111 L56.03261724607424,2.3245325880413303 L56.10870459144153,2.2428795802974655 L56.1805812237368,2.1568861466690947 L56.248289265192994,2.067027585683412 L56.311889953948935,1.973732378334645 L56.371460209259446,1.877380009492749 L56.42708055349574,1.7783150916492043 L56.47883816818545,1.676840041487443 L56.52682232331861,1.573219858005063 L56.571116944874746,1.4676964891394157 L56.61180127104406,1.3604897006618577 L56.64895018054468,1.251797735232033 L56.68263419303583,1.1417977616121906 L56.712919141627,1.0306461140415286 L56.73986325714097,0.9184887351082367 L56.76351621898923,0.805470796492985 L56.78392432698439,0.6917164318128197 L56.80112697635228,0.577343897284095 L56.81515709737728,0.4624662712672011 L56.82604151655253,0.3471917375644322 L56.83380114433023,0.23162383088758265 L56.83845098947211,0.11586164449527192 L56.84,7.327471962526033e-15 " />
			<path d="M56.84,-5.551115123126e-16 L56.83845098947212,-0.11586164449495323 L56.83380114433027,-0.23162383088693309 L56.82604151655263,-0.34719173756334976 L56.815157097377465,-0.4624662712656312 L56.80112697635256,-0.5773438972820337 L56.78392432698479,-0.6917164318102665 L56.76351621898976,-0.8054707964899299 L56.73986325714162,-0.9184887351047684 L56.71291914162776,-1.0306461140381291 L56.68263419303664,-1.1417977616092045 L56.648950180545484,-1.2517977352295129 L56.61180127104481,-1.36048970065986 L56.57111694487541,-1.4676964891379587 L56.52682232331918,-1.5732198580040713 L56.4788381681859,-1.6768400414867166 L56.4270805534961,-1.7783150916484392 L56.371460209259745,-1.8773800094916437 L56.31188995394938,-1.9737323783333538 L56.24828926519382,-2.067027585682035 L56.18058122373821,-2.1568861466674587 L56.10870459144368,-2.242879580295509 L56.03261724607685,-2.3245325880392262 L55.95230397528239,-2.401321351036307 L55.86779839377971,-2.4726641670088823 L55.779189464936245,-2.537933689950739 L55.73339345918304,-2.56808433789765 L55.686638321477766,-2.5964655569350823 L55.63895292378505,-2.6229937759246256 L55.59037276285476,-2.6475845136107896 L55.540951922309006,-2.670148316509086 L55.49075004732764,-2.6905998995765033 L55.43983214099263,-2.7088590372201438 L55.38826868670477,-2.7248513363323514 L55.33613577083075,-2.7385090846379394 L55.28351520558045,-2.7497721743535197 L55.230494652114565,-2.758589101158936 L55.17716774388247,-2.7649180384807956 L55.123634210190424,-2.7687279870881043 L55.07000000000001,-2.77 " />

       </g>
    </g>
    
</svg>
